<?xml version="1.0" encoding="UTF-8"?><svg id="graphic" xmlns="http://www.w3.org/2000/svg" viewBox="0 0 917.56 887.62"><defs><style>.cls-1{fill:#ff9d00;}.cls-2{fill:#ffe100;}.cls-3{opacity:.2;}</style></defs><g><path class="cls-1" d="M664,452.91c.05-1.67,.08-3.34,.11-5.02,0-.43,.02-.86,.03-1.29,0-.93,.01-1.85,.01-2.78,0-2.35-.03-4.68-.08-7.01-.02-.73-.04-1.46-.06-2.19-.05-1.62-.1-3.24-.18-4.86-.02-.4-.02-.8-.04-1.2-.03-.56-.07-1.11-.1-1.67-.05-.86-.1-1.73-.15-2.59-.07-1.09-.14-2.19-.22-3.28-.06-.85-.12-1.7-.19-2.55-.09-1.1-.19-2.19-.29-3.29-.08-.83-.15-1.66-.23-2.49-.11-1.12-.24-2.24-.36-3.35-.09-.79-.17-1.59-.27-2.38-.02-.2-.04-.41-.07-.61-.08-.66-.18-1.31-.26-1.97-.15-1.21-.31-2.41-.48-3.61-.12-.87-.25-1.74-.38-2.61-.17-1.16-.35-2.32-.53-3.47-.14-.89-.29-1.77-.44-2.65-.19-1.13-.39-2.26-.59-3.38-.16-.89-.33-1.77-.5-2.66-.21-1.11-.43-2.22-.66-3.33-.18-.88-.36-1.76-.55-2.64-.23-1.1-.48-2.2-.72-3.3-.19-.87-.39-1.73-.59-2.59-.26-1.1-.52-2.2-.79-3.29-.21-.85-.42-1.69-.63-2.53-.28-1.11-.58-2.21-.88-3.32-.22-.81-.43-1.63-.66-2.44-.32-1.14-.65-2.27-.98-3.4-.22-.76-.44-1.53-.67-2.29-.37-1.22-.75-2.44-1.13-3.65-.21-.65-.41-1.31-.62-1.96-.53-1.63-1.07-3.25-1.62-4.86-.08-.22-.15-.45-.23-.68-.64-1.84-1.29-3.66-1.96-5.47-.21-.56-.43-1.11-.64-1.67-.47-1.25-.94-2.49-1.43-3.72-.27-.69-.56-1.38-.84-2.06-.44-1.09-.88-2.17-1.33-3.25-.31-.74-.63-1.46-.94-2.2-.44-1.02-.87-2.03-1.32-3.04-.33-.75-.68-1.5-1.02-2.24-.44-.98-.89-1.95-1.35-2.92-.35-.75-.71-1.5-1.07-2.24-.46-.95-.92-1.89-1.39-2.83-.17-.34-.33-.69-.51-1.04-.22-.43-.44-.85-.66-1.27-.42-.81-.83-1.63-1.26-2.43-.41-.78-.83-1.56-1.24-2.34-.43-.8-.86-1.6-1.3-2.39-.42-.77-.85-1.53-1.28-2.29-.44-.79-.89-1.57-1.34-2.35-.44-.76-.88-1.51-1.33-2.25-.46-.77-.92-1.54-1.39-2.3-.23-.37-.45-.75-.68-1.13-.14-.23-.3-.46-.44-.69-1.29-2.07-2.59-4.12-3.93-6.13-.14-.21-.28-.41-.42-.61-1.25-1.87-2.53-3.71-3.83-5.53-.18-.25-.34-.51-.52-.75-.13-.18-.26-.35-.39-.52-1.23-1.7-2.47-3.37-3.73-5.02-.12-.15-.24-.3-.36-.45-1.16-1.5-2.33-2.98-3.52-4.44-.17-.21-.33-.42-.5-.62-.24-.3-.49-.58-.74-.88-.83-1-1.67-1.99-2.51-2.97-.42-.49-.85-.99-1.28-1.48-.98-1.12-1.97-2.22-2.97-3.31-.23-.25-.45-.52-.69-.77-.05-.06-.11-.11-.16-.17-1.22-1.32-2.45-2.62-3.7-3.9-.24-.25-.48-.48-.72-.73-1.01-1.03-2.03-2.05-3.06-3.05-.11-.1-.21-.21-.32-.32-.4-.38-.8-.75-1.21-1.13-.72-.68-1.43-1.36-2.16-2.03-.54-.5-1.09-.99-1.63-1.48-.71-.64-1.42-1.28-2.14-1.91-.2-.18-.4-.36-.6-.54-.37-.32-.76-.64-1.13-.96-.67-.57-1.35-1.15-2.03-1.71-.59-.49-1.19-.97-1.78-1.46-.68-.55-1.37-1.1-2.05-1.64-.27-.21-.53-.43-.79-.63-.35-.27-.71-.53-1.07-.8-.65-.5-1.3-.99-1.95-1.47-.63-.47-1.27-.93-1.91-1.4-.66-.48-1.32-.95-1.99-1.41-.3-.21-.59-.42-.88-.63-.36-.25-.72-.48-1.08-.72-.64-.43-1.28-.86-1.92-1.29-.67-.44-1.34-.88-2.01-1.31-.64-.41-1.29-.82-1.94-1.23-.29-.18-.59-.38-.88-.56-.39-.24-.78-.46-1.17-.69-.65-.39-1.29-.77-1.94-1.15-.69-.4-1.39-.8-2.08-1.19-.65-.37-1.31-.74-1.97-1.1-.28-.15-.55-.31-.83-.46-.42-.23-.86-.44-1.28-.67-.66-.35-1.31-.69-1.97-1.03-.71-.36-1.43-.71-2.14-1.06-.66-.33-1.33-.65-1.99-.96-.25-.12-.5-.25-.75-.36-.46-.22-.93-.41-1.4-.63-.69-.31-1.37-.62-2.06-.93-.72-.31-1.44-.62-2.17-.92-.69-.29-1.39-.58-2.08-.86-.24-.1-.47-.2-.71-.29-.49-.19-.98-.37-1.47-.55-.71-.27-1.42-.55-2.14-.81-.73-.27-1.46-.52-2.19-.78-.72-.25-1.44-.5-2.16-.74-.23-.08-.47-.16-.7-.24-.47-.15-.94-.29-1.41-.43-.81-.25-1.61-.51-2.42-.74-.7-.21-1.41-.41-2.11-.6-.81-.23-1.62-.45-2.43-.66-.29-.08-.58-.16-.87-.24-.4-.1-.81-.19-1.21-.28-.88-.22-1.76-.42-2.64-.62-.69-.16-1.39-.31-2.08-.45-.88-.19-1.77-.36-2.66-.53-.4-.07-.79-.16-1.18-.24-.29-.05-.58-.09-.87-.14-1-.17-2-.33-3.01-.49-.64-.1-1.29-.2-1.93-.29-1.08-.15-2.17-.28-3.26-.4-.45-.05-.91-.12-1.36-.17-.1-.01-.21-.02-.31-.03-1.79-.18-3.59-.34-5.4-.45-.4-.03-.81-.04-1.21-.06-1.42-.08-2.85-.14-4.28-.18-.26,0-.51-.03-.77-.03-.93-.02-1.87-.03-2.8-.03h-45.12c1.2,0,2.39,.03,3.58,.06,1.43,.04,2.86,.1,4.28,.18,.4,.02,.8,.03,1.2,.06,1.81,.12,3.61,.27,5.4,.45,.56,.06,1.11,.13,1.67,.19,1.09,.13,2.18,.25,3.27,.4,.65,.09,1.29,.19,1.93,.29,1,.15,2.01,.31,3.01,.49,.69,.12,1.37,.25,2.06,.38,.89,.17,1.78,.34,2.66,.53,.7,.15,1.39,.3,2.08,.45,.88,.2,1.76,.41,2.64,.62,.7,.17,1.39,.34,2.08,.52,.81,.21,1.62,.44,2.43,.66,.71,.2,1.41,.39,2.11,.6,.81,.24,1.61,.49,2.42,.74,.7,.22,1.41,.44,2.11,.67,.72,.24,1.44,.49,2.16,.74,.73,.25,1.46,.51,2.19,.78,.72,.26,1.43,.54,2.14,.81,.73,.28,1.45,.56,2.17,.85,.7,.28,1.39,.57,2.08,.86,.72,.3,1.45,.61,2.16,.92,.69,.3,1.38,.61,2.07,.93,.72,.33,1.43,.65,2.14,.99,.67,.32,1.33,.64,2,.97,.71,.35,1.43,.7,2.14,1.06,.66,.34,1.32,.68,1.98,1.03,.7,.37,1.41,.74,2.11,1.13,.66,.36,1.32,.73,1.97,1.1,.69,.39,1.39,.79,2.08,1.19,.65,.38,1.3,.77,1.94,1.16,.68,.41,1.37,.83,2.05,1.25,.65,.4,1.3,.81,1.94,1.23,.67,.43,1.34,.87,2.01,1.31,.64,.42,1.28,.86,1.92,1.29,.65,.45,1.31,.89,1.96,1.35,.67,.47,1.33,.94,1.99,1.42,.64,.46,1.27,.92,1.9,1.39,.66,.49,1.31,.98,1.96,1.48,.62,.47,1.24,.95,1.85,1.43,.69,.54,1.37,1.09,2.06,1.64,.6,.48,1.19,.97,1.78,1.46,.68,.56,1.36,1.14,2.03,1.71,.58,.49,1.16,.99,1.73,1.49,.72,.63,1.43,1.27,2.14,1.91,.54,.49,1.09,.98,1.63,1.48,.73,.67,1.44,1.35,2.16,2.03,.51,.48,1.02,.96,1.53,1.45,1.03,1,2.05,2.02,3.06,3.05,.24,.24,.48,.48,.72,.73,1.25,1.28,2.48,2.58,3.7,3.9,.29,.31,.57,.63,.85,.94,1,1.09,1.99,2.2,2.97,3.31,.43,.49,.85,.98,1.28,1.48,.84,.98,1.68,1.97,2.51,2.97,.41,.5,.82,1,1.23,1.5,1.19,1.46,2.36,2.94,3.52,4.44,.12,.15,.24,.3,.36,.45,1.26,1.65,2.51,3.33,3.73,5.02,.31,.42,.61,.85,.91,1.28,1.3,1.82,2.57,3.66,3.83,5.53,.14,.21,.28,.41,.42,.61,1.34,2.01,2.65,4.06,3.93,6.13,.38,.6,.75,1.21,1.12,1.81,.47,.76,.93,1.53,1.39,2.3,.44,.75,.89,1.5,1.32,2.25,.45,.78,.9,1.56,1.34,2.35,.43,.76,.86,1.53,1.28,2.29,.44,.79,.87,1.59,1.3,2.39,.42,.78,.83,1.56,1.24,2.34,.42,.81,.84,1.62,1.26,2.43,.39,.77,.78,1.54,1.17,2.31,.47,.94,.93,1.89,1.39,2.83,.36,.75,.72,1.49,1.07,2.24,.45,.97,.9,1.94,1.35,2.92,.34,.75,.68,1.49,1.02,2.24,.45,1.01,.89,2.02,1.32,3.04,.31,.73,.63,1.46,.94,2.2,.45,1.08,.89,2.16,1.33,3.25,.28,.69,.56,1.37,.84,2.06,.49,1.23,.96,2.48,1.43,3.72,.21,.56,.43,1.11,.64,1.67,.67,1.81,1.33,3.63,1.96,5.47,.08,.22,.15,.45,.22,.67,.56,1.61,1.1,3.24,1.63,4.87,.21,.65,.41,1.3,.61,1.95,.38,1.22,.77,2.44,1.14,3.66,.23,.76,.45,1.53,.67,2.29,.33,1.13,.66,2.26,.98,3.4,.23,.81,.44,1.63,.66,2.44,.3,1.1,.59,2.21,.88,3.32,.22,.84,.42,1.69,.63,2.53,.27,1.09,.54,2.19,.79,3.28,.2,.87,.4,1.74,.6,2.61,.24,1.09,.49,2.19,.72,3.28,.19,.88,.37,1.76,.55,2.65,.22,1.1,.44,2.21,.65,3.32,.17,.89,.34,1.77,.5,2.66,.2,1.12,.4,2.25,.59,3.37,.15,.89,.3,1.77,.45,2.66,.18,1.15,.36,2.3,.53,3.45,.13,.88,.26,1.75,.39,2.63,.17,1.19,.32,2.39,.47,3.59,.11,.87,.23,1.73,.33,2.6,.09,.78,.18,1.57,.26,2.36,.12,1.12,.25,2.24,.36,3.37,.08,.83,.16,1.66,.23,2.48,.1,1.1,.2,2.19,.29,3.29,.07,.85,.13,1.7,.19,2.55,.08,1.09,.16,2.18,.22,3.28,.05,.86,.1,1.72,.15,2.59,.05,.95,.1,1.91,.14,2.87,.07,1.61,.13,3.23,.18,4.86,.02,.73,.05,1.46,.06,2.19,.05,2.33,.09,4.67,.09,7.01,0,1.37-.02,2.72-.04,4.08-.02,1.67-.06,3.34-.11,5.01-.02,.73-.04,1.46-.06,2.19-.08,2.31-.18,4.62-.32,6.92,0,.04,0,.08,0,.11-.13,2.17-.28,4.33-.45,6.48-.06,.7-.12,1.39-.18,2.09-.13,1.46-.25,2.91-.4,4.36-.09,.88-.19,1.75-.28,2.62-.13,1.19-.26,2.37-.4,3.55-.11,.9-.23,1.8-.34,2.7-.15,1.16-.31,2.31-.47,3.46-.13,.92-.27,1.85-.41,2.77-.16,1.05-.32,2.1-.49,3.15-.15,.93-.31,1.86-.47,2.79-.18,1.04-.36,2.08-.55,3.12-.17,.94-.35,1.88-.53,2.81-.18,.95-.37,1.9-.56,2.85-.19,.95-.39,1.9-.59,2.85-.2,.94-.41,1.88-.62,2.81-.21,.95-.43,1.89-.65,2.83-.21,.91-.43,1.83-.65,2.74-.23,.94-.46,1.88-.7,2.82-.23,.91-.47,1.81-.7,2.71-.25,.94-.5,1.87-.76,2.8-.24,.87-.49,1.75-.73,2.62-.27,.93-.54,1.86-.81,2.79-.26,.86-.52,1.72-.78,2.58-.28,.92-.57,1.84-.86,2.76-.27,.86-.55,1.71-.83,2.56-.3,.91-.61,1.82-.91,2.72-.29,.85-.58,1.7-.88,2.54-.31,.89-.63,1.78-.96,2.67-.31,.85-.62,1.69-.93,2.53-.33,.88-.66,1.76-1,2.63-.32,.84-.65,1.67-.98,2.5-.34,.85-.68,1.69-1.03,2.53-.36,.87-.72,1.74-1.08,2.61-.35,.83-.71,1.65-1.06,2.48-.37,.86-.75,1.72-1.13,2.57-.36,.8-.72,1.6-1.09,2.4-.41,.89-.82,1.78-1.24,2.66-.37,.79-.75,1.57-1.12,2.35-.42,.88-.85,1.75-1.28,2.62-.38,.76-.76,1.52-1.15,2.28-.46,.91-.93,1.81-1.4,2.71-.39,.74-.78,1.48-1.18,2.21-.48,.89-.97,1.78-1.46,2.67-.39,.71-.78,1.41-1.18,2.11-.61,1.07-1.22,2.12-1.84,3.18-.35,.59-.69,1.19-1.05,1.78-.74,1.24-1.5,2.47-2.27,3.7-.24,.38-.47,.77-.71,1.14-1.05,1.67-2.12,3.31-3.21,4.94-.3,.46-.62,.9-.92,1.36-.8,1.18-1.6,2.34-2.41,3.5-.37,.53-.75,1.05-1.12,1.57-.92,1.29-1.86,2.56-2.8,3.82-.33,.44-.66,.88-.99,1.32-1.25,1.64-2.51,3.26-3.79,4.85-.17,.21-.34,.41-.51,.62-1.34,1.66-2.71,3.28-4.09,4.89-.33,.38-.65,.76-.98,1.14-1.5,1.71-3.02,3.4-4.56,5.05-.53,.57-1.08,1.14-1.62,1.7-.57,.59-1.13,1.19-1.7,1.77-.58,.59-1.17,1.17-1.75,1.76-.58,.57-1.15,1.15-1.73,1.72-.59,.57-1.19,1.14-1.79,1.7-.59,.56-1.17,1.12-1.76,1.66-.6,.56-1.21,1.1-1.82,1.65-.6,.54-1.19,1.08-1.8,1.61-1.07,.94-2.14,1.86-3.22,2.77-.15,.12-.3,.24-.44,.37-.97,.81-1.95,1.6-2.93,2.39-.34,.27-.69,.54-1.03,.82-.86,.68-1.72,1.34-2.59,2-.3,.23-.6,.46-.91,.69-1.14,.86-2.29,1.7-3.45,2.52-.2,.15-.41,.29-.62,.43-.97,.68-1.94,1.36-2.92,2.02-.36,.24-.72,.48-1.09,.73-.91,.6-1.82,1.2-2.74,1.78-.3,.19-.6,.38-.89,.57-1.19,.75-2.39,1.48-3.6,2.2-.25,.15-.5,.29-.74,.43-.98,.57-1.96,1.14-2.95,1.69-.38,.21-.76,.42-1.13,.63-.96,.53-1.93,1.04-2.9,1.55-.29,.15-.57,.3-.86,.45-1.24,.64-2.48,1.25-3.73,1.85-.29,.14-.58,.27-.87,.41-.99,.47-1.98,.93-2.98,1.37-.39,.17-.78,.35-1.17,.52-1.02,.45-2.05,.89-3.09,1.31-.26,.11-.53,.22-.79,.33-1.28,.52-2.56,1.02-3.86,1.5-.32,.12-.65,.24-.97,.35-1,.37-2,.72-3,1.06-.4,.14-.81,.28-1.21,.41-1.09,.36-2.19,.71-3.29,1.05-.23,.07-.46,.15-.69,.21-1.32,.4-2.64,.77-3.97,1.13-.35,.1-.71,.18-1.06,.28-1.01,.27-2.03,.52-3.05,.77-.41,.1-.82,.19-1.22,.29-1.17,.27-2.35,.53-3.54,.77-.18,.04-.36,.08-.54,.11-1.35,.27-2.71,.52-4.07,.75-.38,.06-.76,.12-1.14,.18-1.03,.17-2.06,.32-3.09,.46-.41,.06-.83,.12-1.24,.17-1.27,.16-2.55,.31-3.83,.44-.11,.01-.22,.03-.34,.04-1.38,.14-2.77,.25-4.17,.35-.4,.03-.8,.05-1.2,.07-1.05,.06-2.1,.12-3.15,.16-.41,.02-.82,.03-1.23,.05-1.41,.04-2.82,.07-4.24,.07h45.12c1.42,0,2.83-.03,4.24-.07,.41-.01,.82-.03,1.23-.05,1.05-.04,2.1-.09,3.15-.16,.4-.02,.8-.05,1.2-.07,1.39-.1,2.78-.21,4.17-.35,.11-.01,.23-.03,.34-.04,1.28-.13,2.55-.28,3.82-.44,.41-.05,.83-.11,1.24-.17,1.03-.14,2.06-.3,3.09-.46,.38-.06,.76-.12,1.14-.18,1.36-.23,2.72-.48,4.07-.75,.18-.04,.36-.08,.55-.12,1.18-.24,2.36-.5,3.53-.77,.41-.09,.82-.19,1.22-.29,1.02-.24,2.04-.5,3.05-.77,.35-.09,.71-.18,1.06-.28,1.33-.36,2.65-.73,3.97-1.13,.23-.07,.46-.14,.69-.21,1.1-.34,2.2-.69,3.29-1.05,.4-.13,.81-.27,1.21-.41,1-.34,2-.7,3-1.06,.33-.12,.65-.23,.98-.36,1.29-.48,2.58-.98,3.85-1.5,.27-.11,.53-.22,.8-.33,1.03-.42,2.06-.86,3.08-1.31,.39-.17,.78-.35,1.17-.52,.99-.45,1.98-.9,2.97-1.37,.29-.14,.58-.27,.87-.41,1.25-.6,2.49-1.22,3.73-1.85,.29-.15,.58-.3,.87-.46,.97-.5,1.93-1.02,2.89-1.55,.38-.21,.76-.42,1.14-.63,.99-.55,1.97-1.11,2.94-1.68,.25-.15,.5-.29,.75-.44,1.21-.71,2.4-1.45,3.59-2.19,.3-.19,.6-.38,.9-.58,.92-.58,1.83-1.17,2.73-1.78,.36-.24,.73-.48,1.09-.73,.98-.66,1.95-1.33,2.92-2.01,.21-.14,.41-.29,.62-.43,1.16-.82,2.31-1.67,3.45-2.52,.3-.23,.6-.46,.91-.69,.87-.66,1.73-1.32,2.59-2,.34-.27,.69-.54,1.03-.82,.98-.78,1.95-1.58,2.92-2.38,.15-.13,.3-.25,.45-.37,.96-.8,1.9-1.61,2.85-2.44,.13-.11,.25-.22,.37-.33,.6-.53,1.2-1.07,1.8-1.61,.61-.55,1.22-1.09,1.82-1.65,.59-.55,1.18-1.11,1.76-1.66,.6-.57,1.19-1.13,1.79-1.7,.58-.57,1.16-1.14,1.73-1.72,.59-.58,1.17-1.16,1.75-1.76,.57-.58,1.14-1.18,1.7-1.77,.45-.47,.9-.92,1.34-1.4,.09-.1,.18-.2,.27-.3,1.54-1.65,3.06-3.34,4.56-5.05,.33-.38,.65-.76,.98-1.14,1.39-1.61,2.76-3.24,4.1-4.9,.12-.15,.25-.3,.37-.45,.04-.05,.08-.11,.13-.16,1.28-1.59,2.54-3.21,3.79-4.85,.33-.44,.66-.88,.99-1.32,.94-1.26,1.88-2.53,2.8-3.82,.21-.29,.43-.57,.64-.87,.16-.23,.32-.47,.49-.71,.81-1.16,1.62-2.32,2.41-3.5,.31-.45,.62-.9,.92-1.36,1.08-1.63,2.16-3.27,3.21-4.94,.03-.05,.06-.09,.09-.14,.21-.33,.41-.67,.62-1.01,.76-1.22,1.52-2.45,2.27-3.7,.35-.59,.7-1.19,1.05-1.78,.62-1.05,1.23-2.11,1.84-3.18,.15-.26,.3-.51,.44-.77,.25-.44,.49-.9,.74-1.34,.49-.89,.98-1.77,1.46-2.67,.4-.73,.79-1.47,1.18-2.21,.47-.9,.94-1.8,1.4-2.71,.19-.38,.4-.76,.59-1.14,.19-.38,.37-.76,.56-1.14,.43-.87,.86-1.74,1.28-2.62,.38-.78,.75-1.56,1.12-2.35,.42-.88,.83-1.77,1.24-2.66,.21-.46,.43-.92,.64-1.39,.15-.34,.29-.68,.44-1.01,.38-.85,.75-1.71,1.13-2.57,.36-.82,.71-1.65,1.06-2.48,.37-.87,.72-1.74,1.08-2.61,.21-.51,.43-1.02,.63-1.53,.13-.33,.26-.67,.39-1,.33-.83,.65-1.67,.98-2.5,.34-.87,.67-1.75,1-2.63,.31-.84,.62-1.69,.93-2.53,.19-.52,.38-1.03,.57-1.55,.13-.37,.25-.75,.39-1.12,.3-.84,.59-1.69,.88-2.54,.31-.9,.61-1.81,.91-2.71,.28-.86,.56-1.71,.83-2.57,.16-.5,.33-.99,.48-1.49,.13-.42,.25-.84,.38-1.26,.26-.86,.52-1.72,.78-2.58,.28-.93,.55-1.86,.81-2.79,.25-.87,.49-1.74,.73-2.62,.13-.47,.27-.93,.39-1.4,.13-.46,.24-.93,.36-1.4,.24-.9,.47-1.81,.71-2.71,.24-.94,.47-1.88,.7-2.82,.22-.91,.44-1.82,.65-2.74,.11-.45,.22-.9,.32-1.36,.11-.49,.21-.99,.32-1.48,.21-.94,.41-1.87,.61-2.81,.2-.95,.4-1.9,.59-2.85,.19-.95,.38-1.89,.56-2.85,.09-.45,.18-.9,.27-1.36,.09-.48,.17-.97,.26-1.45,.19-1.04,.37-2.08,.55-3.12,.16-.93,.32-1.86,.47-2.79,.17-1.05,.33-2.1,.49-3.15,.08-.52,.17-1.03,.24-1.55,.06-.4,.11-.81,.16-1.21,.16-1.15,.32-2.31,.47-3.46,.12-.9,.23-1.8,.34-2.7,.14-1.18,.27-2.37,.4-3.55,.07-.63,.15-1.25,.21-1.87,.03-.25,.04-.5,.07-.75,.15-1.45,.28-2.91,.4-4.37,.06-.69,.13-1.38,.18-2.07,.17-2.15,.32-4.32,.45-6.49h0s0-.08,0-.11c.13-2.3,.23-4.61,.32-6.92,.03-.73,.04-1.46,.06-2.19Z"/><path class="cls-2" d="M436.22,205.17c100.79,0,182.81,107.06,182.81,238.65s-82.01,238.65-182.81,238.65-182.81-107.06-182.81-238.65,82.01-238.65,182.81-238.65Z"/><path class="cls-1" d="M434.8,267.11c74.64,0,135.35,79.27,135.35,176.7s-60.72,176.7-135.35,176.7-135.36-79.27-135.36-176.7,60.72-176.7,135.36-176.7Z"/><path class="cls-3" d="M521.27,307.98c-.23-.25-.46-.5-.81-.87-.22-.23-.44-.47-.75-.8-.49-.52-.99-1.04-6.76-6.68-.59-.55-1.19-1.09-3.22-2.89-12.64-11.01-26.77-19.32-42.01-24.32-.25-.08-.51-.17-.79-.25-1.05-.33-2.1-.65-4.16-1.24-.75-.21-1.51-.41-5.11-1.27-.4-.09-.79-.17-4.33-.87-.26-.05-.52-.09-4.72-.74-.29-.04-.6-.08-4.22-.47-.32-.03-.64-.06-1.18-.1-.26-.02-.51-.04-3.12-.2-.33-.02-.65-.03-1.08-.05-.29-.01-.58-.02-3.24-.08-.33,0-.66,0-.99,0-74.63,0-135.35,79.24-135.35,176.69,0,.39,0,.78,1.09,22.47,.04,.37,.07,.74,2.4,17.48,.06,.32,.11,.64,.18,1.01,6.31,34.59,20.44,65.28,39.66,88.5-23.28-31.61-37.58-74.54-37.58-121.73,0-96.99,60.43-175.88,134.72-175.88,43.22,0,81.75,26.71,106.43,68.15-7.06-13.37-15.49-25.42-25.06-35.83Z"/></g><g><path class="cls-2" d="M458.59,331.39c-9.23,2.71-15.87,9.41-20.46,19.16-8.82,18.71-17.61,37.44-26.3,56.23-1,2.16-1.7,2.2-3.37,1.07-12.19-8.27-24.44-16.42-36.67-24.6-.88-.59-1.99-.8-1.09-2.71,5.49-11.61,10.78-23.37,16.34-34.93,2.65-5.53,6.21-10.2,10.98-13.29,2.18-1.41,4.47-2.09,7-2.08,17.83,.07,35.67,.04,53.5,.04l.07,1.13Z"/><path class="cls-2" d="M507.07,521.43c2.12-11.18,.35-21.26-4.47-30.69-9.39-18.4-18.8-36.79-28.27-55.13-.87-1.69-.62-2.31,.69-3.29,12.04-8.94,24.03-17.97,36.04-26.96,.79-.59,1.45-1.57,2.33,.17,5.8,11.49,11.83,22.83,17.5,34.41,3.13,6.38,5.05,13.33,4.01,20.98-.21,1.55-.55,3.02-1.2,4.4-8.55,18.14-17.1,36.29-25.65,54.42-.28,.59-.65,1.12-.98,1.68Z"/><path class="cls-2" d="M342.72,472.11c6.91,6.5,14.51,9.82,23.17,9.67,4.19-.07,8.38-.06,12.57-.03,13.71,.1,27.42,.27,41.13,.3,1.67,0,1.97,.66,1.97,2.5-.06,16.96-.07,33.92,.01,50.87,.01,2.16-.54,2.5-2.17,2.49-9.67-.09-19.35,0-29.02-.04-5.91-.02-11.7-.85-17.02-4.27-2.95-1.9-5.23-4.52-6.84-8.16-7.51-16.95-15.13-33.82-22.71-50.72-.38-.85-.72-1.74-1.08-2.6Z"/><path class="cls-2" d="M340.23,403.61c5.52,0,11.05,.02,16.57,0,8.07-.03,16.15-.09,24.22-.14,1.07,0,1.94-.05,2.61,1.46,6.55,14.86,13.19,29.67,19.8,44.5,.09,.21,.1,.47,.25,1.27-3.35-2.21-6.49-3.99-9.35-6.27-2.05-1.63-2.82-.86-3.91,1.34-4.55,9.2-9.28,18.27-13.88,27.43-.71,1.41-1.46,1.98-2.87,1.95-6.02-.16-12.04-.28-17.9-2.18-7.23-2.35-12.54-7.74-16.04-15.58-2.3-5.15-2.26-10.47,.1-15.76,3.59-8.05,7-16.23,10.61-24.28,.84-1.88,.52-2.82-.78-4-3.25-2.94-6.4-6.03-9.58-9.06l.16-.67Z"/><path class="cls-2" d="M507.09,361.6c-1.06,2.38-2.11,4.77-3.19,7.14-5.46,12.05-10.92,24.09-16.38,36.14-.51,1.12-.88,2.08-2.3,2.04-14.09-.31-28.18-.5-42.28-.73-.2,0-.39-.1-1.07-.29,3.46-2.6,6.53-5.05,9.72-7.25,1.49-1.03,1.73-1.85,.84-3.7-4.53-9.42-8.9-18.96-13.43-28.38-.84-1.75-.77-2.96,.08-4.65,2.98-5.86,5.77-11.89,9.74-16.89,5.91-7.42,13.15-10.67,21.67-9.22,3.75,.64,6.54,3.2,8.62,7,4.25,7.81,8.58,15.56,12.81,23.39,.81,1.49,1.46,1.89,2.91,1.1,3.91-2.16,7.91-4.08,11.87-6.1l.39,.39Z"/><path class="cls-2" d="M460.49,467.75c.27,4.9,.6,9.25,.73,13.61,.05,1.93,.42,2.67,2.2,2.63,9.14-.22,18.29-.26,27.43-.37,1-.01,1.87-.11,2.53,1.22,3.12,6.29,6.28,12.54,8.16,19.58,2.21,8.31,1.34,16.32-1.91,23.94-2.35,5.51-6.13,8.67-11.42,9.1-7.6,.62-15.19,1.48-22.79,2.03-1.83,.13-2.44,.8-2.57,2.97-.3,4.99-.84,9.95-1.29,14.93-.83,0-.92-.78-1.17-1.25-7.07-13.25-14.12-26.53-21.19-39.78-.55-1.02-.98-1.81-.33-3.18,6.99-14.7,13.89-29.45,20.83-44.18,.13-.28,.33-.52,.81-1.25Z"/></g></svg>