<?xml version="1.0" encoding="UTF-8"?><svg id="graphic" xmlns="http://www.w3.org/2000/svg" viewBox="0 0 917.56 887.62"><defs><style>.cls-1{fill:#ff9d00;}.cls-2{fill:#ffe100;}.cls-3{opacity:.2;}</style></defs><g><path class="cls-2" d="M426.97,205.17c-55.61,0-100.85,107.06-100.85,238.65s45.24,238.65,100.85,238.65,100.86-107.06,100.86-238.65-45.24-238.65-100.86-238.65Z"/><path class="cls-1" d="M591.42,439.5c0-.36,0-.73-.01-1.09,0-.6-.01-1.2-.02-1.8,0-.61-.01-1.22-.02-1.83-.01-.71-.03-1.42-.04-2.13-.01-.57-.02-1.14-.03-1.71,0-.28,0-.57-.02-.85-.04-1.47-.08-2.94-.12-4.41,0-.08,0-.15,0-.23v-.03c0-.09,0-.19-.01-.28-.07-2.12-.15-4.23-.25-6.33,0-.17-.01-.35-.02-.52-.02-.44-.05-.88-.07-1.32-.09-1.81-.18-3.62-.28-5.41-.02-.38-.04-.76-.06-1.14-.02-.38-.05-.76-.08-1.15-.1-1.64-.21-3.27-.32-4.89-.05-.67-.09-1.33-.14-2-.17-2.25-.35-4.5-.54-6.73-.02-.26-.05-.51-.07-.77-.18-1.98-.36-3.95-.56-5.91-.07-.71-.15-1.42-.22-2.12-.16-1.54-.33-3.08-.5-4.6-.05-.41-.09-.83-.13-1.24-.03-.29-.07-.57-.11-.85-.29-2.48-.59-4.95-.92-7.39,0-.04,0-.08-.02-.12-.04-.28-.08-.55-.12-.83-.24-1.8-.49-3.59-.75-5.37-.03-.23-.06-.47-.1-.7-.1-.66-.2-1.31-.3-1.96-.14-.9-.27-1.81-.41-2.7-.04-.26-.08-.52-.12-.78-.1-.66-.22-1.31-.32-1.96-.14-.89-.29-1.78-.44-2.67-.04-.25-.08-.51-.12-.76-.11-.65-.23-1.3-.34-1.94-.16-.89-.31-1.78-.47-2.67-.04-.24-.08-.49-.13-.73-.12-.63-.24-1.26-.36-1.89-.17-.91-.34-1.81-.51-2.71-.05-.24-.09-.49-.14-.73-.12-.62-.25-1.23-.37-1.85-.18-.89-.36-1.79-.54-2.68-.05-.25-.1-.49-.15-.74-.12-.59-.25-1.16-.37-1.75-.2-.92-.39-1.85-.59-2.76-.06-.26-.11-.53-.17-.79-.09-.42-.19-.84-.29-1.26-.3-1.32-.6-2.63-.9-3.94-.09-.36-.17-.74-.25-1.1-.07-.31-.15-.6-.22-.91-.32-1.35-.65-2.69-.99-4.03-.1-.41-.2-.83-.3-1.24-.03-.13-.07-.26-.1-.39-.53-2.09-1.08-4.15-1.64-6.19-.04-.15-.08-.3-.12-.44-.07-.26-.15-.51-.22-.77-.6-2.15-1.2-4.28-1.83-6.38-.06-.2-.12-.41-.17-.61-.03-.11-.07-.22-.1-.33-.17-.56-.34-1.1-.51-1.66-.29-.93-.57-1.87-.86-2.79-.19-.6-.38-1.2-.57-1.79-.2-.61-.39-1.22-.59-1.83-.08-.24-.16-.47-.24-.71-.24-.74-.49-1.47-.74-2.2-.25-.75-.51-1.51-.77-2.25-.25-.72-.5-1.44-.76-2.15-.18-.49-.35-1-.52-1.49-.09-.24-.17-.47-.26-.71-.29-.79-.57-1.56-.86-2.34-.25-.68-.51-1.37-.77-2.04-.3-.77-.59-1.54-.89-2.3-.19-.48-.37-.98-.57-1.46-.07-.18-.15-.35-.22-.53-.29-.73-.59-1.46-.89-2.19-.27-.66-.54-1.32-.82-1.98-.3-.72-.61-1.43-.92-2.14-.21-.5-.42-1-.64-1.5-.06-.14-.13-.28-.19-.42-.29-.65-.58-1.3-.87-1.94-.3-.66-.59-1.31-.89-1.96-.3-.64-.6-1.27-.89-1.9-.23-.5-.47-1-.7-1.49-.07-.15-.14-.29-.21-.44-.26-.53-.52-1.06-.78-1.59-.34-.68-.67-1.36-1.01-2.02-.27-.53-.54-1.05-.82-1.58-.22-.43-.45-.87-.67-1.3-.11-.22-.23-.42-.35-.64-.27-.5-.54-1-.81-1.5-.35-.64-.7-1.27-1.05-1.9-.27-.49-.55-.97-.82-1.46-.18-.31-.35-.63-.53-.94-.19-.32-.37-.63-.56-.95-.25-.42-.5-.85-.75-1.27-.39-.64-.77-1.28-1.16-1.91-.24-.39-.48-.79-.73-1.17-.09-.15-.18-.3-.27-.44-.35-.55-.7-1.08-1.05-1.62-.2-.3-.39-.61-.59-.91-.63-.96-1.27-1.9-1.91-2.82l-.02-.03c-.07-.1-.14-.19-.2-.29-.58-.83-1.16-1.64-1.74-2.44-.22-.3-.44-.59-.65-.88-.3-.4-.6-.82-.9-1.21-.14-.19-.28-.36-.43-.55-.25-.32-.49-.63-.74-.95-.43-.55-.86-1.09-1.3-1.62-.25-.3-.49-.6-.74-.9-.13-.16-.26-.32-.39-.48-.35-.41-.7-.81-1.05-1.22-.2-.23-.39-.46-.59-.68-.66-.75-1.32-1.49-1.99-2.21-.02-.02-.04-.04-.05-.06-.1-.11-.21-.21-.31-.32-.59-.62-1.17-1.23-1.76-1.83-.23-.24-.47-.46-.7-.7-.29-.29-.59-.59-.88-.87-.17-.17-.35-.33-.53-.49-.26-.25-.52-.49-.78-.73-.47-.43-.93-.85-1.4-1.26-.25-.22-.5-.44-.75-.66-.11-.1-.22-.2-.33-.29-.43-.36-.86-.71-1.28-1.06-.18-.15-.37-.31-.55-.45-.69-.55-1.39-1.09-2.08-1.61-.03-.02-.06-.04-.1-.07-.18-.13-.36-.26-.54-.39-.56-.41-1.12-.8-1.68-1.19-.27-.18-.54-.36-.8-.53-.31-.21-.62-.42-.94-.62-.16-.1-.33-.2-.5-.3-.31-.19-.62-.38-.93-.57-.46-.27-.92-.54-1.38-.8-.31-.18-.62-.35-.94-.52-.17-.09-.35-.2-.52-.29-.29-.15-.57-.28-.86-.43-.32-.16-.65-.33-.97-.48-.48-.23-.96-.44-1.44-.66-.31-.14-.61-.28-.92-.41-.09-.04-.17-.08-.26-.11-.36-.15-.72-.27-1.08-.41-.38-.15-.76-.3-1.13-.43-.45-.16-.9-.3-1.35-.45-.38-.12-.75-.25-1.13-.37-.06-.02-.12-.04-.18-.06-.34-.1-.68-.18-1.02-.27-.45-.12-.91-.25-1.37-.36-.4-.09-.81-.17-1.21-.25-.46-.09-.91-.19-1.37-.27-.08-.01-.15-.03-.23-.05-.25-.04-.5-.06-.75-.1-.6-.09-1.21-.18-1.82-.25-.36-.04-.73-.07-1.09-.1-.57-.05-1.14-.09-1.72-.11-.18,0-.36-.03-.54-.04-.46-.01-.92-.02-1.38-.02h-63.62c.64,0,1.28,.03,1.92,.06,.57,.03,1.14,.07,1.72,.11,.36,.03,.73,.06,1.09,.1,.61,.07,1.21,.15,1.82,.25,.32,.05,.65,.09,.98,.15,.46,.08,.91,.18,1.37,.27,.4,.08,.81,.16,1.21,.25,.46,.11,.91,.24,1.37,.36,.4,.11,.8,.21,1.2,.32,.38,.11,.76,.24,1.13,.37,.45,.15,.9,.29,1.35,.45,.38,.14,.76,.29,1.13,.43,.45,.17,.89,.34,1.34,.53,.31,.13,.61,.27,.92,.41,.48,.21,.96,.43,1.44,.66,.33,.16,.65,.32,.97,.48,.46,.23,.92,.47,1.39,.72,.31,.17,.63,.34,.94,.52,.46,.26,.92,.52,1.38,.8,.31,.19,.62,.37,.93,.57,.48,.3,.96,.61,1.43,.92,.27,.18,.54,.35,.8,.53,.56,.38,1.12,.78,1.68,1.19,.18,.13,.36,.25,.54,.39,.73,.54,1.46,1.1,2.18,1.68,.18,.15,.37,.3,.55,.45,.54,.44,1.08,.89,1.62,1.35,.25,.22,.5,.44,.75,.66,.47,.42,.94,.84,1.41,1.27,.26,.24,.52,.48,.78,.73,.47,.45,.94,.9,1.41,1.37,.23,.23,.47,.46,.7,.69,.59,.6,1.18,1.21,1.76,1.83,.1,.11,.21,.21,.31,.32,.69,.74,1.37,1.49,2.05,2.26,.2,.22,.39,.46,.59,.68,.48,.56,.96,1.12,1.44,1.69,.25,.3,.49,.6,.74,.9,.43,.53,.87,1.07,1.3,1.62,.25,.31,.49,.63,.74,.94,.45,.58,.89,1.17,1.34,1.77,.22,.29,.43,.58,.65,.87,.59,.8,1.17,1.61,1.74,2.44,.07,.1,.14,.19,.2,.29,.65,.94,1.29,1.89,1.93,2.86,.2,.3,.39,.61,.59,.91,.44,.68,.88,1.36,1.32,2.06,.24,.39,.48,.78,.73,1.17,.39,.63,.78,1.27,1.16,1.91,.25,.42,.5,.84,.75,1.27,.37,.62,.73,1.25,1.09,1.89,.28,.48,.55,.97,.82,1.46,.35,.63,.7,1.26,1.05,1.9,.27,.5,.54,.99,.81,1.5,.34,.64,.68,1.29,1.02,1.94,.27,.52,.55,1.05,.82,1.58,.34,.67,.68,1.35,1.01,2.02,.26,.53,.52,1.05,.78,1.59,.31,.64,.61,1.29,.92,1.93,.3,.63,.6,1.25,.89,1.89,.3,.65,.6,1.31,.9,1.97,.29,.64,.58,1.28,.87,1.93,.28,.63,.55,1.28,.83,1.92,.31,.71,.61,1.42,.92,2.14,.27,.65,.54,1.32,.82,1.98,.3,.73,.6,1.45,.89,2.19,.26,.66,.52,1.32,.78,1.99,.3,.76,.6,1.53,.89,2.3,.26,.68,.51,1.36,.77,2.04,.29,.78,.58,1.55,.86,2.34,.26,.73,.52,1.46,.78,2.19,.25,.72,.51,1.43,.76,2.15,.26,.75,.51,1.5,.77,2.25,.25,.73,.49,1.46,.74,2.2,.28,.84,.55,1.69,.82,2.54,.19,.6,.38,1.19,.57,1.79,.29,.92,.58,1.86,.86,2.79,.17,.55,.34,1.1,.51,1.66,.09,.31,.18,.63,.28,.94,.62,2.1,1.23,4.23,1.83,6.38,.11,.41,.23,.81,.34,1.21,.56,2.04,1.1,4.11,1.64,6.19,.14,.54,.27,1.09,.41,1.64,.33,1.33,.66,2.67,.99,4.02,.16,.67,.32,1.35,.48,2.02,.3,1.3,.6,2.61,.9,3.93,.15,.68,.31,1.37,.46,2.05,.2,.92,.4,1.84,.59,2.76,.18,.83,.35,1.65,.52,2.49,.18,.89,.36,1.78,.54,2.68,.17,.86,.34,1.72,.51,2.58,.17,.9,.34,1.81,.51,2.71,.16,.87,.33,1.74,.49,2.62,.16,.89,.31,1.78,.47,2.67,.16,.9,.31,1.8,.47,2.7,.15,.88,.29,1.77,.44,2.65,.15,.92,.3,1.84,.45,2.77,.14,.89,.27,1.79,.41,2.69,.13,.89,.27,1.77,.4,2.67,.26,1.78,.51,3.57,.75,5.37,.04,.32,.09,.63,.13,.95,.32,2.45,.63,4.91,.92,7.39,.08,.7,.16,1.4,.24,2.1,.17,1.53,.34,3.06,.5,4.6,.07,.71,.15,1.41,.22,2.12,.2,1.96,.38,3.93,.56,5.91,.02,.26,.05,.51,.07,.77,.19,2.23,.37,4.48,.54,6.73,.05,.66,.09,1.33,.14,2,.11,1.63,.22,3.26,.32,4.89,.05,.76,.09,1.53,.14,2.29,.1,1.8,.2,3.6,.28,5.41,.03,.61,.06,1.22,.09,1.84,.09,2.08,.17,4.17,.24,6.27,0,.13,.01,.25,.01,.38,0,.06,0,.11,0,.17,.06,1.77,.1,3.54,.14,5.31,.01,.57,.02,1.14,.03,1.71,.03,1.32,.05,2.64,.06,3.96,0,.59,.02,1.19,.02,1.78,.02,1.8,.03,3.6,.03,5.41s-.01,3.74-.03,5.6c0,.48-.01,.95-.02,1.43-.02,1.46-.04,2.91-.07,4.36,0,.43-.02,.86-.03,1.28-.04,1.79-.09,3.57-.14,5.34-.01,.43-.03,.85-.04,1.28-.05,1.39-.1,2.78-.16,4.16-.03,.64-.05,1.28-.08,1.92-.06,1.27-.12,2.53-.18,3.79-.03,.59-.06,1.18-.09,1.76-.09,1.65-.19,3.3-.29,4.93-.01,.17-.02,.33-.03,.5-.12,1.89-.25,3.77-.4,5.64-.08,1.13-.18,2.25-.27,3.37-.07,.84-.13,1.68-.2,2.52-.1,1.17-.21,2.33-.32,3.5-.07,.78-.14,1.56-.22,2.34-.2,2.04-.41,4.07-.63,6.09-.04,.39-.09,.79-.14,1.18-.2,1.82-.42,3.64-.64,5.44-.09,.72-.18,1.43-.27,2.15-.19,1.52-.39,3.04-.6,4.55-.09,.68-.19,1.36-.28,2.04-.33,2.38-.68,4.74-1.04,7.08-.05,.29-.09,.58-.14,.87-.34,2.14-.69,4.27-1.05,6.38-.1,.59-.2,1.17-.3,1.75-.43,2.45-.87,4.88-1.34,7.29-.06,.31-.12,.62-.19,.94-.44,2.26-.9,4.5-1.37,6.73-.1,.47-.19,.93-.29,1.4-.52,2.45-1.07,4.87-1.63,7.27-.11,.48-.23,.96-.34,1.44-.59,2.49-1.19,4.96-1.82,7.4-.02,.06-.03,.13-.05,.19-.65,2.53-1.33,5.02-2.02,7.49-.11,.38-.21,.75-.31,1.13-.69,2.42-1.39,4.8-2.11,7.16-.2,.64-.39,1.29-.59,1.93-.21,.66-.41,1.32-.62,1.97-.26,.82-.53,1.64-.8,2.46-.21,.65-.42,1.29-.64,1.93-.27,.8-.54,1.59-.81,2.38-.23,.67-.46,1.33-.69,1.99-.27,.78-.55,1.55-.83,2.33-.23,.65-.46,1.29-.7,1.93-.26,.7-.52,1.4-.79,2.1-.28,.75-.56,1.5-.85,2.24-.27,.69-.54,1.36-.8,2.04-.29,.73-.58,1.46-.87,2.18-.25,.61-.5,1.21-.75,1.82-.35,.85-.71,1.7-1.07,2.55-.26,.6-.52,1.2-.77,1.79-.36,.82-.72,1.63-1.08,2.44-.25,.56-.51,1.13-.76,1.68-.44,.97-.89,1.92-1.34,2.87-.23,.49-.46,.98-.69,1.46-.55,1.14-1.11,2.27-1.68,3.38-.13,.25-.25,.52-.38,.77-.77,1.51-1.56,2.99-2.35,4.45-.21,.39-.43,.78-.65,1.17-.62,1.13-1.25,2.25-1.89,3.34-.24,.41-.47,.82-.71,1.22-.26,.44-.53,.88-.79,1.32-.37,.61-.74,1.23-1.11,1.83-.28,.44-.55,.88-.83,1.32-.37,.58-.74,1.16-1.11,1.74-.28,.43-.56,.86-.84,1.28-.38,.57-.76,1.13-1.14,1.68-.28,.41-.56,.82-.85,1.23-.55,.79-1.11,1.57-1.67,2.34-.04,.05-.07,.1-.11,.15-.62,.85-1.25,1.68-1.88,2.49-.16,.21-.33,.42-.49,.63-.57,.73-1.14,1.45-1.72,2.15-.07,.09-.15,.18-.22,.27-.64,.77-1.28,1.53-1.93,2.27-.16,.19-.33,.38-.49,.56-.57,.64-1.14,1.27-1.71,1.89-.1,.11-.2,.22-.3,.33-.66,.7-1.31,1.38-1.98,2.05-.16,.17-.33,.33-.49,.49-.57,.56-1.14,1.12-1.71,1.65-.12,.12-.25,.24-.37,.35-.67,.62-1.34,1.23-2.02,1.82-.16,.14-.33,.28-.49,.42-.57,.49-1.15,.97-1.73,1.44-.14,.11-.28,.23-.42,.35-.68,.55-1.37,1.08-2.06,1.59-.16,.12-.31,.23-.47,.34-.58,.42-1.17,.84-1.76,1.24-.16,.11-.31,.22-.47,.32-.7,.47-1.4,.92-2.11,1.35-.15,.09-.3,.18-.45,.27-.6,.36-1.2,.71-1.8,1.04-.17,.09-.34,.19-.5,.28-.71,.39-1.43,.76-2.15,1.11-.13,.07-.27,.13-.4,.19-.62,.3-1.24,.58-1.86,.84-.18,.08-.36,.16-.53,.23-.73,.3-1.46,.59-2.19,.86-.12,.04-.23,.08-.35,.12-.64,.23-1.28,.44-1.93,.64-.19,.06-.38,.12-.56,.17-.74,.22-1.48,.42-2.23,.61-.09,.02-.18,.04-.27,.06-.67,.16-1.35,.3-2.02,.43-.19,.04-.39,.07-.58,.11-.75,.13-1.51,.25-2.27,.34-.05,0-.11,.01-.16,.02-.71,.08-1.43,.15-2.15,.19-.2,.01-.39,.03-.59,.04-.77,.04-1.54,.07-2.31,.07h63.62c.77,0,1.54-.03,2.31-.07,.2-.01,.39-.02,.59-.04,.72-.05,1.43-.11,2.15-.19,.05,0,.11,0,.16-.02,.76-.09,1.52-.21,2.27-.34,.19-.03,.39-.07,.58-.11,.68-.13,1.35-.27,2.02-.43,.09-.02,.18-.04,.27-.06,.75-.18,1.49-.39,2.23-.6,.19-.06,.38-.11,.56-.17,.64-.2,1.29-.41,1.93-.64,.12-.04,.23-.08,.35-.12,.73-.27,1.46-.56,2.19-.86,.18-.07,.36-.15,.53-.23,.62-.27,1.24-.55,1.86-.84,.13-.06,.27-.12,.4-.19,.72-.35,1.44-.72,2.15-1.11,.17-.09,.34-.19,.51-.28,.6-.33,1.2-.68,1.79-1.04,.15-.09,.3-.18,.45-.27,.7-.43,1.41-.88,2.1-1.35,.16-.11,.31-.22,.47-.32,.59-.4,1.17-.81,1.75-1.24,.16-.12,.32-.23,.48-.35,.69-.51,1.38-1.04,2.06-1.59,.14-.11,.28-.23,.42-.35,.58-.47,1.15-.95,1.73-1.44,.16-.14,.33-.28,.49-.42,.68-.59,1.35-1.2,2.02-1.82,.12-.12,.25-.24,.37-.35,.57-.54,1.14-1.09,1.71-1.65,.17-.16,.33-.33,.5-.49,.66-.67,1.32-1.35,1.98-2.05,.1-.11,.2-.22,.3-.33,.57-.62,1.14-1.25,1.71-1.89,.16-.19,.33-.37,.49-.56,.65-.74,1.29-1.5,1.93-2.27,.07-.09,.15-.18,.22-.27,.58-.7,1.15-1.42,1.72-2.15,.16-.21,.33-.42,.49-.63,.63-.82,1.26-1.65,1.88-2.49,.04-.05,.07-.1,.11-.15,.43-.59,.86-1.18,1.28-1.77,.13-.18,.26-.38,.39-.56,.28-.41,.57-.82,.85-1.23,.38-.56,.76-1.11,1.14-1.68,.28-.42,.56-.85,.84-1.28,.37-.57,.74-1.15,1.11-1.74,.28-.44,.55-.88,.83-1.32,.37-.6,.74-1.21,1.11-1.83,.26-.44,.53-.88,.79-1.32,.1-.17,.2-.33,.29-.49,.14-.24,.27-.49,.41-.73,.64-1.1,1.27-2.21,1.89-3.34,.22-.39,.43-.78,.65-1.17,.79-1.46,1.58-2.94,2.35-4.45,.02-.03,.03-.06,.05-.1,.11-.22,.22-.45,.33-.67,.56-1.12,1.12-2.24,1.68-3.39,.23-.48,.46-.96,.69-1.45,.45-.95,.9-1.91,1.35-2.88,.12-.26,.24-.51,.36-.77,.14-.3,.27-.61,.4-.91,.36-.81,.72-1.62,1.08-2.44,.26-.59,.52-1.19,.77-1.79,.36-.84,.72-1.7,1.07-2.55,.17-.4,.34-.8,.5-1.2,.08-.2,.16-.4,.24-.6,.3-.73,.59-1.47,.88-2.2,.27-.67,.53-1.35,.8-2.03,.29-.74,.57-1.5,.86-2.25,.19-.51,.39-1.01,.58-1.52,.07-.19,.14-.38,.21-.57,.24-.64,.47-1.29,.7-1.93,.28-.77,.56-1.55,.83-2.33,.23-.66,.46-1.33,.69-1.99,.18-.51,.36-1.02,.53-1.54,.09-.28,.18-.56,.28-.84,.21-.64,.43-1.29,.64-1.93,.27-.82,.53-1.63,.8-2.46,.21-.66,.42-1.32,.63-1.98,.13-.42,.26-.83,.39-1.25,.07-.22,.13-.45,.2-.67,.72-2.36,1.43-4.74,2.11-7.16,.04-.13,.08-.26,.12-.39,.07-.24,.13-.49,.2-.74,.69-2.47,1.37-4.97,2.02-7.5,.01-.05,.02-.09,.04-.13v-.04c.64-2.44,1.24-4.91,1.83-7.4,.07-.28,.14-.55,.2-.83,.05-.2,.09-.41,.14-.61,.56-2.4,1.1-4.82,1.63-7.27,.04-.17,.07-.33,.11-.49,.06-.3,.12-.61,.18-.91,.47-2.22,.93-4.47,1.37-6.73,.04-.23,.09-.45,.14-.68,.02-.08,.03-.17,.05-.26,.46-2.41,.91-4.84,1.34-7.29,.05-.26,.1-.51,.14-.77,.06-.32,.11-.66,.16-.98,.36-2.12,.72-4.25,1.06-6.4,.03-.22,.07-.43,.11-.65,0-.06,.02-.13,.03-.19,.37-2.35,.71-4.71,1.05-7.09,.04-.25,.08-.49,.11-.75,.06-.42,.11-.85,.17-1.28,.21-1.52,.41-3.04,.6-4.57,.06-.43,.12-.86,.17-1.3,.03-.27,.06-.55,.1-.83,.22-1.81,.43-3.63,.64-5.45,.04-.32,.08-.64,.11-.96,0-.07,.01-.14,.02-.22,.22-2.02,.43-4.05,.63-6.09v-.09c.08-.71,.14-1.43,.21-2.15,.11-1.2,.23-2.39,.33-3.6,0-.05,0-.09,.01-.14,.07-.79,.13-1.59,.19-2.38,.09-1.12,.19-2.24,.27-3.37,0-.06,.01-.13,.02-.19,.13-1.79,.26-3.58,.38-5.38v-.07c.01-.17,.02-.33,.03-.5,.09-1.39,.17-2.78,.25-4.18,.01-.25,.03-.51,.04-.76,.03-.59,.06-1.18,.09-1.76,.04-.75,.08-1.5,.12-2.25,.02-.51,.04-1.03,.07-1.54,.03-.64,.06-1.28,.08-1.92,.02-.45,.04-.89,.06-1.34,.04-.94,.07-1.88,.1-2.82,.01-.43,.03-.85,.04-1.28,0-.15,.01-.3,.02-.45,.04-1.42,.08-2.84,.12-4.26,0-.21,0-.41,.01-.62,0-.43,.02-.86,.03-1.3,.02-.79,.03-1.58,.05-2.37,.01-.66,.02-1.31,.02-1.97,0-.48,.01-.96,.02-1.44,0-.3,0-.59,.01-.89,.01-1.44,.02-2.88,.02-4.32,0-.13,0-.26,0-.39,0-1.44,0-2.88-.02-4.31Z"/><ellipse class="cls-1" cx="426.97" cy="443.81" rx="74.68" ry="176.7"/><path class="cls-3" d="M474.68,307.98c-.13-.25-.26-.5-.45-.87-.12-.23-.24-.47-.42-.8-.27-.52-.55-1.04-3.73-6.68-.33-.55-.66-1.09-1.77-2.89-6.97-11.01-14.77-19.32-23.18-24.32-.14-.08-.28-.17-.43-.25-.58-.33-1.16-.65-2.29-1.24-.42-.21-.83-.41-2.82-1.27-.22-.09-.44-.17-2.39-.87-.14-.05-.29-.09-2.6-.74-.16-.04-.33-.08-2.33-.47-.18-.03-.35-.06-.65-.1-.14-.02-.28-.04-1.72-.2-.18-.02-.36-.03-.6-.05-.16-.01-.32-.02-1.78-.08-.18,0-.37,0-.55,0-41.17,0-74.68,79.24-74.68,176.69,0,51.17,9.25,97.34,23.91,129.46-12.84-31.61-20.74-74.54-20.74-121.73,0-96.99,33.35-175.88,74.33-175.88,23.85,0,45.1,26.71,58.71,68.15-3.89-13.37-8.55-25.42-13.82-35.83Z"/></g><g><path class="cls-2" d="M439.45,331.4c-5.24,2.71-9.01,9.41-11.62,19.16-5,18.71-9.99,37.44-14.93,56.23-.57,2.16-.97,2.2-1.91,1.07-6.92-8.27-13.87-16.42-20.81-24.6-.5-.59-1.13-.8-.62-2.71,3.12-11.61,6.12-23.37,9.27-34.93,1.51-5.53,3.52-10.2,6.23-13.29,1.24-1.41,2.54-2.09,3.97-2.08,10.12,.07,20.24,.04,30.37,.04l.04,1.13Z"/><path class="cls-2" d="M466.97,521.43c1.21-11.18,.2-21.26-2.54-30.69-5.33-18.4-10.67-36.79-16.05-55.13-.49-1.69-.35-2.31,.39-3.29,6.83-8.94,13.64-17.97,20.45-26.96,.45-.59,.82-1.57,1.32,.17,3.29,11.49,6.72,22.83,9.94,34.41,1.77,6.38,2.87,13.33,2.28,20.98-.12,1.55-.31,3.02-.68,4.4-4.85,18.14-9.7,36.29-14.56,54.42-.16,.59-.37,1.12-.56,1.68Z"/><path class="cls-2" d="M373.68,472.11c3.92,6.5,8.24,9.82,13.15,9.67,2.38-.07,4.76-.06,7.13-.03,7.78,.1,15.56,.27,23.35,.3,.95,0,1.12,.66,1.12,2.5-.03,16.96-.04,33.92,0,50.87,0,2.16-.31,2.5-1.23,2.49-5.49-.09-10.98,0-16.47-.04-3.35-.02-6.64-.85-9.66-4.27-1.68-1.9-2.97-4.52-3.88-8.16-4.26-16.95-8.59-33.82-12.89-50.72-.22-.85-.41-1.74-.61-2.6Z"/><path class="cls-2" d="M372.27,403.61c3.14,0,6.27,.02,9.41,0,4.58-.03,9.17-.09,13.75-.14,.61,0,1.1-.05,1.48,1.46,3.72,14.86,7.49,29.67,11.24,44.5,.05,.21,.05,.47,.14,1.27-1.9-2.21-3.68-3.99-5.31-6.27-1.16-1.63-1.6-.86-2.22,1.34-2.58,9.2-5.27,18.27-7.88,27.43-.4,1.41-.83,1.98-1.63,1.95-3.42-.16-6.83-.28-10.16-2.18-4.11-2.35-7.12-7.74-9.11-15.58-1.31-5.15-1.28-10.47,.06-15.76,2.04-8.05,3.97-16.23,6.02-24.28,.48-1.88,.3-2.82-.44-4-1.84-2.94-3.63-6.03-5.44-9.06l.09-.67Z"/><path class="cls-2" d="M466.98,361.6c-.6,2.38-1.2,4.77-1.81,7.14-3.1,12.05-6.2,24.09-9.3,36.14-.29,1.12-.5,2.08-1.3,2.04-8-.31-16-.5-24-.73-.11,0-.22-.1-.61-.29,1.96-2.6,3.71-5.05,5.52-7.25,.85-1.03,.98-1.85,.48-3.7-2.57-9.42-5.05-18.96-7.63-28.38-.48-1.75-.44-2.96,.05-4.65,1.69-5.86,3.27-11.89,5.53-16.89,3.35-7.42,7.46-10.67,12.3-9.22,2.13,.64,3.71,3.2,4.89,7,2.42,7.81,4.87,15.56,7.27,23.39,.46,1.49,.83,1.89,1.65,1.1,2.22-2.16,4.49-4.08,6.74-6.1l.22,.39Z"/><path class="cls-2" d="M440.53,467.75c.16,4.9,.34,9.25,.41,13.61,.03,1.93,.24,2.67,1.25,2.63,5.19-.22,10.38-.26,15.57-.37,.56-.01,1.06-.11,1.43,1.22,1.77,6.29,3.57,12.54,4.63,19.58,1.26,8.31,.76,16.32-1.09,23.94-1.33,5.51-3.48,8.67-6.48,9.1-4.31,.62-8.62,1.48-12.93,2.03-1.04,.13-1.39,.8-1.46,2.97-.17,4.99-.48,9.95-.73,14.93-.47,0-.52-.78-.67-1.25-4.02-13.25-8.02-26.53-12.03-39.78-.31-1.02-.56-1.81-.19-3.18,3.97-14.7,7.89-29.45,11.82-44.18,.08-.28,.19-.52,.46-1.25Z"/></g></svg>