<?xml version="1.0" encoding="UTF-8"?><svg id="graphic" xmlns="http://www.w3.org/2000/svg" viewBox="0 0 917.56 887.62"><defs><style>.cls-1{fill:#ff9d00;}.cls-2{fill:#ffe100;}.cls-3{opacity:.2;}</style></defs><g><path class="cls-1" d="M382.78,442.63c0-.99,0-1.98,0-2.97,0-.55,0-1.09,0-1.63,0-.21,0-.42,0-.63,0-.23,0-.47,0-.7,0-.99,.01-1.97,.02-2.95,0-.62,.01-1.24,.02-1.86,0-.18,0-.36,0-.55,0-.18,0-.36,0-.54,0-.98,.02-1.96,.03-2.93,0-.69,.02-1.38,.03-2.07,0-.16,0-.33,0-.49,0-.12,0-.24,0-.36,.02-1.48,.04-2.95,.07-4.43,0-.21,0-.41,.01-.62,0-.56,.02-1.11,.03-1.66,.02-.86,.03-1.72,.05-2.57,0-.43,.02-.86,.03-1.29,.01-.66,.03-1.31,.04-1.97,.01-.52,.02-1.05,.04-1.57,.02-.71,.04-1.41,.05-2.12,.02-.61,.03-1.22,.05-1.83,0-.28,.01-.57,.02-.85,.01-.4,.03-.8,.04-1.21,.06-1.99,.12-3.96,.18-5.93,.02-.64,.04-1.29,.06-1.93,.08-2.45,.17-4.88,.27-7.3,0-.07,0-.13,0-.2,.01-.31,.03-.61,.04-.91,.08-1.91,.16-3.81,.25-5.7,.01-.31,.03-.62,.04-.93,.03-.73,.07-1.45,.11-2.17,.03-.59,.06-1.19,.09-1.78,.01-.26,.02-.52,.04-.77,.06-1.11,.12-2.21,.17-3.32,.02-.38,.04-.77,.06-1.15,0-.07,0-.15,.01-.22,.08-1.49,.16-2.98,.25-4.46,0-.16,.02-.31,.03-.47,.01-.23,.03-.46,.04-.7,.04-.65,.08-1.3,.12-1.95,.06-1.03,.13-2.06,.19-3.08v-.05c.07-1.02,.13-2.04,.2-3.06,.04-.65,.09-1.29,.13-1.94,.01-.22,.03-.44,.04-.66,.01-.16,.02-.31,.03-.47,.07-1.02,.14-2.03,.21-3.04,.03-.4,.06-.79,.09-1.19,.02-.29,.04-.58,.06-.87,.02-.34,.05-.67,.07-1.01,.08-1.04,.16-2.07,.24-3.1,.01-.18,.03-.35,.04-.53,.02-.25,.04-.5,.06-.75,.05-.6,.09-1.2,.14-1.8,.08-.97,.16-1.93,.24-2.89,0-.04,0-.07,0-.11v-.05c.09-1.01,.18-2.02,.26-3.03,.05-.54,.09-1.07,.14-1.61,.02-.26,.05-.52,.07-.77,.02-.21,.04-.42,.06-.63,.12-1.3,.24-2.6,.36-3.89,0-.06,.01-.12,.02-.18,.02-.22,.04-.43,.06-.64,.1-1.02,.19-2.05,.29-3.06,.03-.29,.06-.58,.09-.87,.05-.48,.1-.95,.14-1.42,.05-.52,.1-1.04,.16-1.55,.06-.56,.12-1.12,.18-1.68,.05-.46,.1-.92,.14-1.38,.03-.24,.05-.49,.08-.73,.06-.55,.12-1.08,.18-1.63,.1-.94,.21-1.88,.31-2.81,.03-.25,.05-.5,.08-.74,.05-.45,.11-.89,.16-1.34,.12-1.05,.24-2.09,.36-3.12,.04-.32,.07-.65,.11-.96,.04-.37,.09-.74,.14-1.11,.12-1.01,.25-2.02,.37-3.02,.05-.4,.1-.8,.15-1.2,.03-.2,.05-.4,.08-.6,.28-2.21,.57-4.38,.87-6.53,.02-.13,.03-.27,.05-.4,.03-.24,.07-.47,.1-.71,.3-2.14,.6-4.25,.91-6.33,.02-.12,.03-.25,.05-.37,0-.05,.02-.11,.02-.16,.12-.78,.24-1.56,.36-2.33,.1-.66,.2-1.34,.31-1.99,.12-.79,.25-1.56,.38-2.34,.1-.59,.19-1.19,.29-1.78,0-.03,.01-.07,.02-.1,.15-.94,.31-1.85,.47-2.77,.08-.46,.16-.93,.24-1.39,.24-1.36,.47-2.7,.71-4.02v-.03s.02-.09,.03-.14c.24-1.3,.48-2.58,.72-3.84,.09-.45,.18-.89,.26-1.34,.17-.85,.33-1.7,.5-2.54,.01-.05,.02-.1,.03-.15,.13-.63,.26-1.25,.39-1.88,.11-.55,.22-1.1,.34-1.64,.14-.66,.28-1.3,.42-1.94,.12-.55,.24-1.1,.36-1.64,0-.03,.01-.07,.02-.1,.17-.75,.33-1.48,.5-2.21,.08-.37,.17-.75,.25-1.12,.26-1.13,.52-2.23,.79-3.33h0l.02-.08c.26-1.05,.51-2.08,.77-3.1,.09-.34,.18-.67,.26-1.01,.16-.61,.32-1.23,.48-1.83,.02-.08,.04-.15,.06-.23,.1-.36,.2-.71,.29-1.07,.17-.63,.34-1.25,.52-1.86,.11-.39,.22-.77,.33-1.15,.11-.39,.22-.79,.34-1.17,.05-.17,.1-.34,.15-.51,.11-.38,.23-.75,.34-1.12,.16-.53,.33-1.06,.49-1.58,.12-.37,.23-.74,.35-1.1,.07-.23,.15-.46,.22-.69,.09-.28,.19-.56,.28-.84,.11-.34,.22-.67,.34-1,.18-.52,.36-1.03,.54-1.54,.11-.3,.21-.6,.32-.89,.03-.09,.07-.19,.1-.28,.18-.49,.36-.96,.54-1.44,.07-.19,.15-.39,.22-.59,.28-.72,.56-1.43,.84-2.12,0-.02,.02-.04,.03-.07,.07-.17,.14-.32,.2-.49,.22-.54,.45-1.07,.67-1.59,.11-.24,.21-.48,.32-.72,.14-.3,.27-.61,.41-.91,.05-.12,.11-.23,.16-.34,.12-.25,.24-.5,.36-.75,.18-.38,.36-.75,.55-1.11,.12-.24,.25-.48,.37-.72,.08-.15,.16-.31,.24-.46,.1-.19,.21-.37,.31-.56,.13-.23,.26-.47,.38-.7,.19-.33,.38-.65,.56-.97,.12-.21,.25-.42,.37-.62,.04-.07,.08-.14,.12-.2,.16-.25,.31-.48,.47-.72,.12-.18,.24-.37,.36-.55,.23-.34,.46-.66,.69-.98,.09-.12,.17-.25,.26-.37,0-.01,.02-.03,.03-.04,.31-.41,.62-.8,.93-1.16l.02-.03c.32-.38,.64-.73,.96-1.07,0,0,.02-.02,.03-.03,.18-.19,.36-.35,.54-.52,.16-.15,.32-.32,.48-.46,.19-.16,.37-.3,.56-.45,.15-.12,.3-.26,.46-.37h.02c.36-.27,.71-.51,1.07-.72,.07-.04,.14-.07,.22-.11,.29-.16,.57-.31,.86-.44,.01,0,.02-.01,.04-.02,.07-.03,.14-.04,.21-.07,.3-.12,.61-.23,.92-.31,.14-.04,.27-.06,.41-.09,.26-.06,.51-.1,.77-.13,.07,0,.14-.03,.21-.03,.2-.02,.39-.02,.59-.02h69.13c-.27,0-.53,.03-.79,.06-.26,.03-.51,.07-.77,.13-.14,.03-.27,.05-.41,.09-.31,.08-.61,.19-.92,.31-.08,.03-.17,.06-.25,.09-.29,.13-.58,.28-.87,.44-.07,.04-.14,.07-.21,.11-.36,.21-.71,.45-1.07,.71-.16,.12-.32,.26-.48,.39-.19,.15-.37,.29-.56,.45-.16,.14-.32,.31-.48,.46-.18,.17-.37,.34-.55,.53-.33,.34-.66,.71-.99,1.09l-.02,.03c-.32,.38-.64,.78-.96,1.2-.09,.12-.17,.25-.26,.37-.23,.32-.46,.64-.69,.98-.12,.18-.24,.37-.36,.55-.2,.3-.4,.61-.59,.92-.12,.2-.25,.41-.37,.62-.19,.32-.38,.63-.56,.97-.13,.23-.26,.46-.39,.7-.18,.33-.36,.67-.55,1.02-.12,.24-.24,.47-.37,.72-.18,.37-.37,.74-.55,1.12-.12,.25-.24,.49-.36,.75-.19,.41-.38,.83-.57,1.25-.11,.24-.21,.47-.32,.72-.23,.52-.45,1.05-.68,1.59-.07,.16-.14,.32-.2,.49-.29,.71-.58,1.44-.87,2.19-.07,.19-.14,.39-.22,.58-.21,.57-.43,1.14-.64,1.73-.1,.29-.21,.58-.31,.88-.18,.51-.36,1.02-.54,1.55-.11,.33-.22,.67-.34,1-.17,.51-.34,1.02-.5,1.53-.12,.36-.23,.72-.35,1.09-.17,.53-.33,1.06-.5,1.6-.11,.37-.22,.73-.34,1.1-.17,.55-.33,1.12-.49,1.68-.11,.38-.22,.77-.33,1.16-.17,.6-.34,1.22-.51,1.83-.1,.37-.2,.73-.3,1.1-.18,.67-.36,1.35-.54,2.04-.09,.34-.18,.68-.27,1.03-.25,.97-.5,1.96-.74,2.96-.02,.07-.04,.14-.05,.21-.27,1.09-.53,2.2-.79,3.33-.08,.35-.16,.72-.24,1.07-.18,.78-.36,1.56-.53,2.36-.12,.54-.23,1.09-.35,1.63-.14,.65-.28,1.29-.42,1.95-.12,.58-.24,1.17-.36,1.75-.13,.64-.26,1.27-.39,1.92-.17,.85-.34,1.72-.51,2.58-.08,.44-.17,.86-.26,1.3-.24,1.26-.48,2.55-.72,3.84-.01,.06-.02,.11-.03,.17-.24,1.32-.48,2.67-.71,4.02-.08,.46-.16,.93-.23,1.39-.16,.92-.32,1.84-.47,2.77-.1,.6-.19,1.21-.29,1.81-.13,.8-.26,1.6-.39,2.42-.1,.63-.2,1.27-.29,1.9-.12,.8-.25,1.6-.37,2.41-.03,.17-.05,.35-.08,.52-.31,2.08-.61,4.2-.91,6.35-.05,.36-.1,.72-.15,1.08-.3,2.15-.59,4.34-.87,6.55-.08,.59-.15,1.18-.22,1.77-.13,1.01-.25,2.02-.38,3.03-.08,.69-.17,1.39-.25,2.08-.12,1.03-.24,2.07-.36,3.12-.08,.69-.16,1.38-.24,2.07-.11,.95-.21,1.9-.31,2.85-.08,.78-.17,1.55-.25,2.34-.05,.45-.1,.91-.14,1.37-.11,1.07-.22,2.15-.33,3.23-.05,.48-.1,.96-.15,1.45-.13,1.27-.25,2.55-.37,3.84-.02,.25-.05,.49-.07,.73-.15,1.55-.29,3.11-.43,4.68-.02,.26-.05,.53-.07,.79-.14,1.55-.27,3.1-.4,4.67v.11c-.14,1.55-.27,3.12-.39,4.69-.02,.25-.04,.5-.06,.75-.12,1.53-.24,3.07-.35,4.61-.02,.3-.04,.6-.07,.9-.11,1.55-.22,3.11-.33,4.67-.02,.23-.03,.47-.05,.7-.23,3.32-.44,6.67-.64,10.06-.01,.23-.03,.46-.04,.69-.1,1.7-.2,3.41-.29,5.13-.02,.42-.04,.84-.07,1.26-.07,1.32-.14,2.64-.21,3.97-.03,.62-.06,1.24-.09,1.85-.05,1.01-.1,2.02-.14,3.03-.09,1.89-.17,3.78-.25,5.68-.02,.39-.03,.77-.05,1.16-.1,2.41-.19,4.84-.27,7.29-.02,.64-.04,1.29-.06,1.93-.07,1.97-.13,3.95-.18,5.93-.02,.69-.04,1.37-.06,2.06-.02,.61-.03,1.22-.05,1.83-.03,1.23-.06,2.46-.09,3.69-.01,.66-.03,1.31-.04,1.97-.03,1.27-.05,2.55-.08,3.83-.01,.57-.02,1.14-.03,1.71-.03,1.79-.06,3.59-.08,5.39,0,.16,0,.33,0,.49-.02,1.84-.04,3.68-.06,5.53,0,.19,0,.38,0,.57-.02,1.83-.03,3.66-.04,5.49,0,.22,0,.43,0,.65,0,1.92-.01,3.84-.01,5.77s0,3.88,.01,5.82c0,.21,0,.41,0,.62,0,1.85,.02,3.69,.04,5.53,0,.16,0,.32,0,.48,.02,1.92,.04,3.84,.06,5.76v.19c.03,1.86,.06,3.72,.09,5.57,0,.19,0,.39,0,.58,.03,1.77,.07,3.52,.11,5.28,0,.31,.01,.62,.02,.93,.04,1.71,.08,3.42,.12,5.12,0,.31,.02,.63,.03,.94,.04,1.53,.09,3.05,.13,4.56,.01,.34,.02,.68,.03,1.02,.06,1.77,.11,3.54,.18,5.29,.02,.47,.03,.94,.05,1.41,.05,1.31,.1,2.62,.15,3.93,.02,.58,.05,1.17,.07,1.75,.04,1.03,.09,2.06,.13,3.09,.05,1.06,.09,2.11,.14,3.17,.04,.87,.08,1.73,.12,2.59,.06,1.2,.12,2.4,.18,3.6,.04,.82,.08,1.64,.13,2.46,.07,1.23,.13,2.45,.2,3.67,.04,.73,.08,1.46,.12,2.19,.14,2.34,.28,4.67,.43,6.98,.03,.44,.06,.87,.09,1.31,.13,1.98,.26,3.94,.4,5.89,.04,.57,.08,1.15,.12,1.72,.18,2.49,.37,4.97,.56,7.41,.03,.41,.07,.82,.1,1.24,.19,2.41,.39,4.79,.6,7.15,.03,.29,.05,.58,.08,.87,.23,2.64,.48,5.25,.73,7.83,.04,.46,.09,.92,.13,1.38,.25,2.55,.51,5.07,.78,7.57,.08,.76,.16,1.52,.25,2.28,.07,.68,.15,1.37,.23,2.05,.1,.9,.2,1.79,.31,2.68,.07,.65,.15,1.3,.23,1.94,.1,.89,.21,1.76,.32,2.64,.08,.66,.16,1.32,.24,1.97,.11,.89,.22,1.77,.34,2.66,.08,.62,.16,1.24,.24,1.86,.1,.76,.2,1.52,.3,2.28,.1,.76,.2,1.52,.3,2.27,.1,.74,.21,1.47,.31,2.21,.11,.75,.21,1.51,.32,2.26,.08,.58,.17,1.15,.25,1.73,.14,.93,.27,1.87,.41,2.79,.1,.63,.19,1.26,.29,1.88,.13,.85,.26,1.69,.39,2.53,.09,.59,.19,1.17,.28,1.76,.15,.92,.3,1.84,.45,2.74,.1,.6,.2,1.2,.3,1.79,.15,.87,.3,1.73,.45,2.58,.1,.57,.2,1.13,.3,1.7,.19,1.06,.38,2.11,.58,3.15,.09,.46,.17,.93,.26,1.39,.28,1.46,.56,2.9,.84,4.32v.04c.33,1.63,.67,3.22,1,4.78,.09,.41,.18,.83,.27,1.24,.3,1.4,.61,2.78,.92,4.13,.04,.17,.08,.35,.12,.52,.08,.34,.16,.66,.24,.99,.18,.76,.35,1.51,.53,2.25,.1,.41,.2,.81,.3,1.22,.16,.65,.32,1.3,.48,1.93,.11,.43,.22,.84,.33,1.26,.16,.6,.31,1.2,.47,1.78,.11,.42,.23,.84,.34,1.26,.17,.63,.35,1.26,.52,1.87,.07,.24,.13,.47,.2,.7,.25,.89,.51,1.76,.77,2.61,.02,.07,.04,.13,.06,.2,.24,.79,.48,1.56,.72,2.32,.07,.23,.14,.45,.22,.67,.23,.71,.46,1.41,.69,2.09,.04,.11,.07,.22,.11,.33,.26,.78,.53,1.54,.8,2.28,.07,.19,.14,.38,.21,.57,.22,.6,.43,1.18,.65,1.76,.06,.17,.13,.34,.19,.51,.27,.7,.54,1.39,.81,2.06,.06,.14,.11,.27,.17,.41,.23,.55,.45,1.08,.68,1.61,.08,.17,.15,.35,.23,.52,.28,.63,.56,1.25,.84,1.84,.02,.04,.04,.07,.05,.11,.27,.56,.53,1.1,.8,1.63,.08,.15,.16,.31,.23,.46,.25,.47,.49,.94,.74,1.38,.05,.08,.09,.17,.14,.25,.29,.51,.57,1.01,.86,1.48,.07,.12,.15,.24,.22,.36,.23,.38,.47,.75,.71,1.1,.07,.11,.14,.21,.21,.32,.29,.43,.59,.85,.88,1.24,.06,.08,.11,.15,.17,.22,.25,.33,.5,.64,.74,.94,.08,.1,.16,.2,.24,.29,.3,.35,.6,.69,.9,1l.03,.03c.29,.3,.59,.58,.88,.85,.08,.07,.17,.15,.25,.22,.26,.22,.52,.43,.78,.63,.05,.04,.11,.08,.16,.12,.31,.22,.61,.42,.92,.61,.08,.05,.15,.09,.23,.13,.25,.14,.5,.27,.75,.38,.08,.04,.15,.07,.23,.11,.31,.13,.62,.25,.93,.34,.06,.02,.12,.03,.17,.04,.26,.07,.53,.13,.79,.17,.09,.01,.17,.03,.26,.04,.32,.04,.63,.07,.95,.07h-69.13c-.32,0-.64-.03-.95-.07-.09-.01-.17-.03-.26-.04-.26-.04-.53-.1-.79-.17-.06-.02-.12-.03-.17-.04-.31-.09-.62-.21-.93-.34-.08-.03-.15-.07-.23-.11-.25-.12-.5-.24-.75-.38-.08-.04-.16-.09-.23-.13-.31-.18-.61-.38-.92-.61-.05-.04-.11-.08-.16-.12-.26-.19-.52-.4-.77-.63-.08-.07-.17-.15-.25-.22-.29-.26-.59-.54-.88-.84-.01-.01-.02-.02-.03-.03-.3-.31-.6-.65-.9-1-.08-.1-.16-.19-.24-.29-.25-.3-.5-.61-.74-.93-.06-.08-.11-.15-.17-.22-.29-.39-.59-.81-.88-1.24-.07-.11-.14-.22-.21-.32-.24-.36-.47-.72-.7-1.1-.07-.12-.15-.24-.22-.36-.29-.48-.58-.97-.87-1.49-.05-.08-.09-.17-.14-.25-.25-.45-.49-.91-.74-1.38-.08-.15-.16-.31-.24-.46-.27-.53-.53-1.07-.8-1.63-.02-.04-.04-.07-.06-.11-.28-.6-.56-1.21-.84-1.84-.08-.17-.15-.35-.23-.52-.23-.52-.45-1.05-.68-1.6-.06-.14-.12-.28-.17-.42-.27-.67-.54-1.35-.81-2.06-.06-.17-.13-.33-.19-.5-.22-.57-.44-1.16-.65-1.75-.07-.19-.14-.39-.21-.58-.27-.74-.53-1.5-.79-2.27-.04-.12-.08-.24-.12-.36-.23-.68-.45-1.37-.68-2.07-.07-.23-.15-.46-.22-.69-.24-.75-.48-1.52-.71-2.29-.02-.08-.05-.15-.07-.23-.26-.85-.51-1.72-.77-2.61-.07-.23-.13-.47-.2-.71-.08-.3-.17-.59-.25-.9-.09-.32-.18-.65-.27-.98-.11-.42-.23-.84-.34-1.26-.16-.59-.31-1.19-.47-1.78-.11-.42-.22-.84-.33-1.26-.16-.64-.33-1.29-.49-1.95-.1-.4-.2-.79-.3-1.2-.18-.76-.37-1.53-.55-2.31-.07-.31-.15-.62-.22-.94-.01-.05-.02-.09-.03-.14-.03-.13-.06-.28-.09-.41-.31-1.35-.62-2.73-.92-4.12-.09-.41-.18-.82-.26-1.23-.33-1.57-.67-3.16-.99-4.79h0v-.04c-.29-1.41-.57-2.85-.85-4.31-.09-.47-.18-.94-.26-1.42-.19-1.03-.38-2.08-.57-3.13-.05-.27-.1-.53-.15-.79-.05-.3-.1-.6-.16-.9-.15-.85-.3-1.72-.45-2.58-.1-.6-.2-1.19-.3-1.79-.15-.91-.3-1.83-.45-2.75-.07-.42-.14-.82-.2-1.24-.03-.16-.05-.33-.08-.49-.13-.85-.27-1.7-.4-2.56-.1-.62-.19-1.24-.29-1.86-.14-.9-.27-1.82-.41-2.74-.08-.51-.15-1.01-.23-1.53-.01-.09-.02-.17-.04-.26-.1-.71-.2-1.44-.3-2.16-.11-.77-.22-1.53-.32-2.31-.1-.72-.19-1.45-.29-2.17-.09-.7-.19-1.39-.28-2.09-.01-.1-.02-.2-.04-.29-.08-.59-.15-1.18-.23-1.77-.12-.91-.23-1.82-.35-2.75-.08-.65-.16-1.3-.24-1.95-.08-.69-.17-1.38-.25-2.08-.02-.18-.04-.37-.06-.56-.08-.65-.15-1.31-.23-1.96-.1-.89-.21-1.79-.31-2.69-.08-.67-.15-1.35-.22-2.03-.06-.57-.13-1.14-.19-1.71-.02-.19-.04-.38-.06-.56-.27-2.49-.53-5.01-.78-7.56-.02-.2-.04-.4-.06-.61-.03-.26-.05-.54-.07-.8-.25-2.58-.49-5.17-.73-7.81,0-.08-.02-.16-.02-.24-.02-.22-.04-.44-.06-.66-.21-2.35-.41-4.73-.6-7.13-.02-.28-.05-.54-.07-.82-.01-.14-.02-.28-.03-.42-.19-2.44-.38-4.91-.56-7.4-.02-.23-.04-.46-.05-.7-.03-.35-.05-.71-.07-1.06-.14-1.94-.27-3.89-.4-5.85-.02-.32-.04-.64-.07-.96,0-.12-.01-.24-.02-.36-.15-2.3-.29-4.62-.42-6.96-.01-.19-.02-.38-.04-.58-.03-.55-.06-1.11-.09-1.66-.07-1.21-.14-2.42-.2-3.63-.02-.33-.04-.66-.05-.99-.03-.49-.05-.99-.07-1.48-.06-1.19-.12-2.38-.18-3.57-.02-.44-.04-.87-.07-1.31-.02-.44-.04-.88-.06-1.32-.05-1.05-.09-2.1-.14-3.15-.02-.52-.05-1.03-.07-1.54-.02-.5-.04-1.01-.06-1.52-.02-.6-.05-1.2-.07-1.8-.02-.4-.03-.81-.05-1.21-.03-.89-.07-1.78-.1-2.68-.02-.47-.04-.94-.05-1.42,0-.16-.01-.31-.02-.47-.05-1.53-.1-3.06-.15-4.59,0-.09,0-.17,0-.26,0-.31-.02-.62-.03-.92-.03-1.08-.07-2.17-.1-3.25-.01-.47-.03-.95-.04-1.43,0-.29-.02-.58-.02-.88,0-.33-.02-.66-.03-.99-.03-1.1-.06-2.2-.08-3.31,0-.29-.01-.58-.02-.87,0-.29-.01-.57-.02-.86-.01-.53-.02-1.06-.03-1.6-.02-1.11-.04-2.22-.06-3.34,0-.13,0-.25,0-.38,0-.19,0-.38,0-.57-.01-.8-.03-1.6-.04-2.4-.02-1.04-.03-2.08-.05-3.13v-.19c-.01-.86-.02-1.72-.03-2.58-.01-.92-.02-1.85-.03-2.78,0-.16,0-.32,0-.47v-.43c0-.63-.01-1.25-.02-1.88,0-.93-.01-1.86-.02-2.8,0-.29,0-.59,0-.88,0-.21,0-.41,0-.62,0-.43,0-.87,0-1.3,0-.94,0-1.87,0-2.81,0-.57,0-1.13,0-1.7,0-.39,0-.79,0-1.18Z"/><path class="cls-2" d="M493.34,205.17c22.85,0,41.44,107.06,41.44,238.65s-18.59,238.65-41.44,238.65-41.44-107.06-41.44-238.65,18.59-238.65,41.44-238.65Z"/><path class="cls-1" d="M493.34,267.11c16.92,0,30.68,79.27,30.68,176.7s-13.76,176.7-30.68,176.7-30.68-79.27-30.68-176.7,13.76-176.7,30.68-176.7Z"/><path class="cls-3" d="M486.8,271.16c.06-.08,.12-.15,.18-.23,.18-.23,.37-.44,1.15-1.27,.1-.1,.21-.2,1-.89,.07-.05,.14-.11,1.09-.75,.06-.04,.13-.07,.95-.47,.07-.03,.15-.06,.27-.1,.06-.02,.11-.04,.71-.2,.07-.02,.15-.03,.24-.05,.07-.01,.13-.02,.73-.08,.08,0,.15,0,.23,0,16.92,0,30.69,79.24,30.69,176.69,0,.39,0,.78-.14,16.65,0,.34-.01,.68-.02,1.16-.49,28.03-2.12,54.15-5.42,83.61-1.25,10.26-2.69,19.72-4.27,28.12,5.28-31.62,8.54-74.58,8.54-121.81,0-96.99-13.7-175.88-30.54-175.88-9.79,0-18.53,26.69-24.12,68.15,4.35-36.35,11-62.9,18.74-72.64Z"/></g><g><path class="cls-2" d="M488.87,336.65c1.88,2.71,3.23,9.41,4.17,19.16,1.79,18.71,3.58,37.44,5.35,56.23,.2,2.16,.35,2.2,.69,1.07,2.48-8.27,4.98-16.42,7.46-24.6,.18-.59,.41-.8,.22-2.71-1.12-11.61-2.19-23.37-3.33-34.93-.54-5.53-1.26-10.2-2.24-13.29-.44-1.41-.91-2.09-1.42-2.08-3.63,.07-7.26,.04-10.89,.04l-.02,1.13Z"/><path class="cls-2" d="M479,526.68c-.43-11.18-.07-21.26,.91-30.69,1.91-18.4,3.83-36.79,5.76-55.13,.18-1.69,.13-2.31-.14-3.29-2.45-8.94-4.89-17.97-7.34-26.96-.16-.59-.29-1.57-.47,.17-1.18,11.49-2.41,22.83-3.56,34.41-.64,6.38-1.03,13.33-.82,20.98,.04,1.55,.11,3.02,.24,4.4,1.74,18.14,3.48,36.29,5.22,54.42,.06,.59,.13,1.12,.2,1.68Z"/><path class="cls-2" d="M512.45,477.36c-1.41,6.5-2.95,9.82-4.72,9.67-.85-.07-1.71-.06-2.56-.03-2.79,.1-5.58,.27-8.37,.3-.34,0-.4,.66-.4,2.5,.01,16.96,.01,33.92,0,50.87,0,2.16,.11,2.5,.44,2.49,1.97-.09,3.94,0,5.91-.04,1.2-.02,2.38-.85,3.47-4.27,.6-1.9,1.06-4.52,1.39-8.16,1.53-16.95,3.08-33.82,4.62-50.72,.08-.85,.15-1.74,.22-2.6Z"/><path class="cls-2" d="M512.96,408.86c-1.12,0-2.25,.02-3.37,0-1.64-.03-3.29-.09-4.93-.14-.22,0-.4-.05-.53,1.46-1.33,14.86-2.69,29.67-4.03,44.5-.02,.21-.02,.47-.05,1.27,.68-2.21,1.32-3.99,1.9-6.27,.42-1.63,.57-.86,.8,1.34,.93,9.2,1.89,18.27,2.83,27.43,.14,1.41,.3,1.98,.58,1.95,1.23-.16,2.45-.28,3.64-2.18,1.47-2.35,2.55-7.74,3.27-15.58,.47-5.15,.46-10.47-.02-15.76-.73-8.05-1.42-16.23-2.16-24.28-.17-1.88-.11-2.82,.16-4,.66-2.94,1.3-6.03,1.95-9.06l-.03-.67Z"/><path class="cls-2" d="M478.99,366.85c.22,2.38,.43,4.77,.65,7.14,1.11,12.05,2.22,24.09,3.33,36.14,.1,1.12,.18,2.08,.47,2.04,2.87-.31,5.74-.5,8.61-.73,.04,0,.08-.1,.22-.29-.7-2.6-1.33-5.05-1.98-7.25-.3-1.03-.35-1.85-.17-3.7,.92-9.42,1.81-18.96,2.73-28.38,.17-1.75,.16-2.96-.02-4.65-.61-5.86-1.17-11.89-1.98-16.89-1.2-7.42-2.68-10.67-4.41-9.22-.76,.64-1.33,3.2-1.75,7-.87,7.81-1.75,15.56-2.61,23.39-.16,1.49-.3,1.89-.59,1.1-.8-2.16-1.61-4.08-2.42-6.1l-.08,.39Z"/><path class="cls-2" d="M488.48,473.01c-.06,4.9-.12,9.25-.15,13.61-.01,1.93-.09,2.67-.45,2.63-1.86-.22-3.72-.26-5.58-.37-.2-.01-.38-.11-.51,1.22-.64,6.29-1.28,12.54-1.66,19.58-.45,8.31-.27,16.32,.39,23.94,.48,5.51,1.25,8.67,2.32,9.1,1.55,.62,3.09,1.48,4.64,2.03,.37,.13,.5,.8,.52,2.97,.06,4.99,.17,9.95,.26,14.93,.17,0,.19-.78,.24-1.25,1.44-13.25,2.87-26.53,4.31-39.78,.11-1.02,.2-1.81,.07-3.18-1.42-14.7-2.83-29.45-4.24-44.18-.03-.28-.07-.52-.16-1.25Z"/></g></svg>