<?xml version="1.0" encoding="UTF-8"?><svg id="graphic" xmlns="http://www.w3.org/2000/svg" viewBox="0 0 917.56 887.62"><defs><style>.cls-1{fill:#ff9d00;}.cls-2{fill:#ffe100;}.cls-3{opacity:.2;}</style></defs><g><circle class="cls-1" cx="458.78" cy="443.81" r="186" transform="translate(-179.45 454.4) rotate(-45)"/><path class="cls-2" d="M458.78,205.17c-131.59,0-238.64,107.05-238.64,238.64s107.05,238.64,238.64,238.64,238.64-107.05,238.64-238.64-107.05-238.64-238.64-238.64Zm0,424.64c-102.56,0-186-83.44-186-186s83.44-186,186-186,186,83.44,186,186-83.44,186-186,186Z"/><path class="cls-3" d="M458.78,257.81c-102.55,0-186,83.43-186,186,0,53.85,23.02,102.46,59.74,136.45-32.1-33.3-51.84-78.56-51.84-128.32,0-102.09,83.06-185.12,185.12-185.12,59.39,0,112.34,28.1,146.24,71.72-33.55-48.72-89.73-80.73-153.26-80.73Z"/></g><g><path class="cls-2" d="M485.18,331.39c-11.08,2.71-19.05,9.41-24.57,19.16-10.59,18.71-21.14,37.44-31.58,56.23-1.2,2.16-2.04,2.2-4.04,1.07-14.63-8.27-29.34-16.42-44.02-24.6-1.06-.59-2.39-.8-1.31-2.71,6.59-11.61,12.94-23.37,19.61-34.93,3.19-5.53,7.45-10.2,13.19-13.29,2.62-1.41,5.37-2.09,8.4-2.08,21.41,.07,42.82,.04,64.23,.04l.09,1.13Z"/><path class="cls-2" d="M543.38,521.43c2.55-11.18,.42-21.26-5.36-30.69-11.27-18.4-22.57-36.79-33.94-55.13-1.05-1.69-.74-2.31,.83-3.29,14.45-8.94,28.85-17.97,43.26-26.96,.95-.59,1.74-1.57,2.79,.17,6.97,11.49,14.2,22.83,21.02,34.41,3.75,6.38,6.07,13.33,4.82,20.98-.25,1.55-.66,3.02-1.44,4.4-10.27,18.14-20.53,36.29-30.8,54.42-.34,.59-.78,1.12-1.17,1.68Z"/><path class="cls-2" d="M346.06,472.11c8.29,6.5,17.42,9.82,27.82,9.67,5.03-.07,10.06-.06,15.09-.03,16.46,.1,32.92,.27,49.38,.3,2.01,0,2.37,.66,2.36,2.5-.07,16.96-.09,33.92,.02,50.87,.01,2.16-.65,2.5-2.6,2.49-11.61-.09-23.23,0-34.84-.04-7.09-.02-14.04-.85-20.44-4.27-3.55-1.9-6.28-4.52-8.22-8.16-9.02-16.95-18.17-33.82-27.27-50.72-.46-.85-.87-1.74-1.3-2.6Z"/><path class="cls-2" d="M343.08,403.61c6.63,0,13.26,.02,19.89,0,9.69-.03,19.38-.09,29.08-.14,1.28,0,2.33-.05,3.13,1.46,7.86,14.86,15.84,29.67,23.77,44.5,.11,.21,.11,.47,.3,1.27-4.02-2.21-7.79-3.99-11.23-6.27-2.46-1.63-3.39-.86-4.7,1.34-5.47,9.2-11.14,18.27-16.67,27.43-.85,1.41-1.75,1.98-3.45,1.95-7.23-.16-14.45-.28-21.49-2.18-8.68-2.35-15.05-7.74-19.26-15.58-2.77-5.15-2.72-10.47,.12-15.76,4.31-8.05,8.4-16.23,12.74-24.28,1.01-1.88,.63-2.82-.93-4-3.9-2.94-7.68-6.03-11.51-9.06l.2-.67Z"/><path class="cls-2" d="M543.41,361.6c-1.28,2.38-2.54,4.77-3.83,7.14-6.55,12.05-13.12,24.09-19.67,36.14-.61,1.12-1.05,2.08-2.76,2.04-16.92-.31-33.84-.5-50.76-.73-.24,0-.47-.1-1.28-.29,4.15-2.6,7.84-5.05,11.67-7.25,1.79-1.03,2.08-1.85,1.01-3.7-5.44-9.42-10.68-18.96-16.13-28.38-1.01-1.75-.93-2.96,.1-4.65,3.58-5.86,6.92-11.89,11.7-16.89,7.09-7.42,15.78-10.67,26.01-9.22,4.5,.64,7.86,3.2,10.34,7,5.11,7.81,10.31,15.56,15.38,23.39,.97,1.49,1.76,1.89,3.49,1.1,4.69-2.16,9.49-4.08,14.25-6.1l.47,.39Z"/><path class="cls-2" d="M487.46,467.75c.33,4.9,.73,9.25,.87,13.61,.06,1.93,.5,2.67,2.64,2.63,10.98-.22,21.96-.26,32.93-.37,1.19-.01,2.24-.11,3.03,1.22,3.75,6.29,7.55,12.54,9.79,19.58,2.65,8.31,1.61,16.32-2.3,23.94-2.82,5.51-7.36,8.67-13.71,9.1-9.12,.62-18.23,1.48-27.36,2.03-2.19,.13-2.93,.8-3.09,2.97-.36,4.99-1.01,9.95-1.55,14.93-.99,0-1.1-.78-1.41-1.25-8.49-13.25-16.96-26.53-25.44-39.78-.65-1.02-1.18-1.81-.4-3.18,8.39-14.7,16.68-29.45,25.01-44.18,.16-.28,.4-.52,.97-1.25Z"/></g></svg>